<svg width="56" height="50" viewBox="0 0 56 50" fill="none" xmlns="http://www.w3.org/2000/svg">
<g clip-path="url(#clip0_313_3653)">
<path d="M30.3578 44.2409L36.8502 34.9115L37.0006 34.6965C39.9605 30.3327 38.8022 24.409 34.4136 21.4657C30.025 18.5226 24.0679 19.6744 21.1081 24.0384C20.0397 25.6138 19.4691 27.4709 19.4699 29.3711C19.4699 29.4941 19.473 29.6067 19.477 29.7295H25.2753C25.265 29.6067 25.2587 29.4941 25.2587 29.3711C25.2614 27.2901 26.9579 25.6041 29.0508 25.6025C31.1424 25.6025 32.9428 27.1692 32.8438 29.3711C32.8006 30.344 31.9488 31.8391 31.6245 32.3C31.3 32.771 19.3123 50.0067 19.3123 50.0067H35.7059L39.7142 44.2411H30.3578V44.2409ZM45.1737 19.8368H45.11L41.1016 25.6024H46.1377V50.0067H51.9257V19.8368H45.1737ZM47.0214 61.794C32.0964 68.0414 14.9041 61.0746 8.62156 46.2336C2.33903 31.3923 9.345 14.2967 24.2701 8.04942C31.5447 5.00434 39.7468 5.00434 47.0214 8.04942C48.6278 8.73069 50.1716 9.54961 51.6353 10.4971L54.935 5.76565C49.208 1.99427 42.4885 -0.0115269 35.6195 4.98306e-05C16.2401 4.98306e-05 0.53125 15.6379 0.53125 34.9219C0.53125 54.2056 16.2401 69.8437 35.6195 69.8437C42.7752 69.8549 49.7612 67.6775 55.6302 63.6069L52.3315 58.8755C50.6681 60.0289 48.8886 61.0072 47.0214 61.794ZM53.5643 49.9657C53.495 49.9435 53.4303 49.9086 53.3737 49.8633L53.4405 49.7406C53.4921 49.7821 53.5489 49.8166 53.6095 49.843C53.6727 49.8632 53.7388 49.8735 53.8053 49.8735C53.8719 49.8803 53.9389 49.8621 53.9927 49.8223C54.0399 49.7901 54.0669 49.7359 54.0638 49.6789C54.068 49.6379 54.0545 49.5968 54.0267 49.5663C54.0051 49.5405 53.9753 49.5225 53.9423 49.515C53.8942 49.4968 53.8446 49.483 53.7939 49.4741C53.7124 49.4613 53.6329 49.4372 53.5582 49.4024C53.5088 49.38 53.4668 49.3446 53.4366 49.3C53.4103 49.2571 53.398 49.2068 53.4016 49.1566C53.3984 49.0834 53.4201 49.0113 53.4634 48.9518C53.5034 48.8998 53.5578 48.8606 53.6199 48.8391C53.6844 48.8183 53.7518 48.808 53.8197 48.8083C53.9485 48.8086 54.0744 48.8478 54.1801 48.921L54.1163 49.0337C54.0272 48.9736 53.9221 48.9416 53.8145 48.9414C53.7431 48.9336 53.6714 48.9518 53.6126 48.9926C53.566 49.0343 53.5407 49.0944 53.5436 49.1564C53.5428 49.1856 53.551 49.2142 53.5673 49.2384C53.5845 49.2698 53.6146 49.2922 53.6498 49.2998C53.7038 49.3218 53.7595 49.339 53.8166 49.351C53.8897 49.3612 53.9516 49.3816 54.0031 49.3921C54.0553 49.4133 54.1031 49.4444 54.1431 49.4842C54.1849 49.5364 54.2072 49.6017 54.2058 49.6684C54.2076 49.73 54.1907 49.7907 54.1574 49.8426C54.124 49.8952 54.0767 49.9378 54.0205 49.9655C53.9536 49.9908 53.883 50.0048 53.8114 50.0064C53.7276 50.0031 53.6446 49.9894 53.5643 49.9657ZM55.5437 49.9863H55.4088V49.0236L55.071 49.8633H54.9206L54.5849 49.0236V49.9863H54.4489V48.829H54.6488L54.9969 49.6892L55.3419 48.829H55.5438L55.5437 49.9863Z" fill="#D8C497"/>
</g>
<defs>
<clipPath id="clip0_313_3653">
<rect width="55.4688" height="50" fill="white" transform="translate(0.53125)"/>
</clipPath>
</defs>
</svg>
